<?xml version="1.0" standalone="no"?>
<!DOCTYPE svg PUBLIC "-//W3C//DTD SVG 20010904//EN"
 "http://www.w3.org/TR/2001/REC-SVG-20010904/DTD/svg10.dtd">
<svg version="1.0" xmlns="http://www.w3.org/2000/svg"
 width="478.000000pt" height="478.000000pt" viewBox="0 0 478.000000 478.000000"
 preserveAspectRatio="xMidYMid meet">
<metadata>
Created by potrace 1.14, written by Peter Selinger 2001-2017
</metadata>
<g transform="translate(0.000000,478.000000) scale(0.100000,-0.100000)"
fill="#000000" stroke="none">
<path d="M0 2390 l0 -2390 2390 0 2390 0 0 2390 0 2390 -2390 0 -2390 0 0
-2390z m1894 1875 c23 -24 35 -79 41 -195 3 -58 10 -166 15 -240 6 -74 12
-373 15 -665 2 -291 9 -651 15 -800 6 -148 10 -357 8 -462 -1 -106 2 -196 6
-200 13 -14 274 262 465 492 259 311 507 684 659 992 159 322 231 501 258 648
16 84 35 125 58 125 34 0 35 -96 2 -240 -24 -105 -149 -461 -209 -595 -99
-220 -352 -651 -485 -825 -142 -186 -448 -551 -576 -688 -27 -29 -46 -56 -42
-60 4 -4 89 -8 189 -8 100 -1 293 -7 429 -14 257 -13 486 -9 551 10 20 6 59
25 86 42 53 32 71 31 71 -6 0 -25 -39 -66 -88 -91 -84 -42 -149 -47 -642 -56
-604 -10 -683 -17 -709 -67 -4 -9 -11 -192 -15 -405 -7 -424 -12 -461 -63
-473 -60 -15 -89 75 -78 245 3 58 1 158 -5 221 -5 63 -13 157 -17 208 -3 51
-10 95 -15 98 -5 3 -39 -14 -76 -39 -202 -132 -299 -170 -379 -148 -24 6 -55
22 -70 35 -24 20 -28 32 -28 73 0 59 30 104 103 158 56 41 230 116 327 140 41
11 80 28 95 42 l25 24 1 602 c1 865 12 2116 19 2127 9 15 42 12 59 -5z"/>
<path d="M1570 1301 c-58 -18 -126 -57 -149 -85 -20 -24 6 -21 71 9 29 14 60
25 69 25 9 0 23 7 30 17 8 9 28 24 44 35 40 24 11 24 -65 -1z"/>
</g>
</svg>
