<?xml version="1.0" encoding="UTF-8"?><svg id="b" xmlns="http://www.w3.org/2000/svg" viewBox="0 0 236.96 207.64"><defs><style>.d{fill:#fff;}</style></defs><g id="c"><path class="d" d="M93.39,137.64c-17.54.01-35.09-1.8-52.47-1.29,25.7-25.85,48.85-56.14,61.47-91.02,1.54-4.05,12.6-32.33,3.86-29.13-6.34,38.57-42.54,88.47-70.89,113.08.21-1.28,1.07-2.57-.21-3.85,2.49-11.27-.26-23.54.22-35.55-2.27-30.63.21-57.84-3.75-87.96-.85-2.53-3.53-2.59-4.67,0-.26,2.86,1.08,6,.64,8.91,1.77,32.38-1.49,61.23.29,92.97-1.57,10.44.97,21.08-.21,31.48.03,5.59-12.2,4.61-16.92,8.35-16.52,5.07-12.99,23.19,4.07,14.14,20.75-12.14,10.94-11.6,14.78,12.2.06,4.84-.17,9.33-.21,14.14.64,9.43,7.61,5.21,6.64-1.93.53-8.76.04-17.42.43-26.13-.52-13.31-.88-13.46,12.85-13.28l-.86-.86c14.75-2.72,53.86,6.31,61.25-8.14-.33-3.99-8.44,5.21-16.28,3.86ZM15.22,151.56c-2.43-1.35-5.25,3.19-8.35,2.36,3-3.64,7.71-6,13.49-6.43-2.36,1.29-4.28,1.93-5.14,4.07Z"/><path class="d" d="M109.87,60.32c4.88-.8,4.29-8.4-.21-6-1.7,1.32-2.92,5.5.21,6Z"/><path class="d" d="M210.52,129.9c-3.67-13.08-2.39-31.09-14.35-39.4-4.61,1.69-7.2,6.42-11.78,7.71.09-7.33,9.87-17.03,16.28-10.28.86,1.93-.64,4.28,1.71,5.36,8.82-20.2-26.34-9.55-21.87,6.54-5.29,8.41-7.23,19.77-14.76,26.69-.86-.64-1.5-1.07-1.71-1.93l-.21.21c-3.74-11.19-1.25-24.01-4.93-35.12-10.2-3.07-15.98,30.4-19.7,38.12-1.75-18.93,2.55-37.89.43-56.76-6.81-1.78-2.92,9.44-4.28,13.28.16,1.68-.31,7.76-.82,15.44-19.16,39.58-19.22,37.02-20.8-6.87,2.52-8.3-5.21-16.09-5.14-2.78-4.41,31.94,6.16,71.51,25.37,19.01-.99,18.32-1.1,38.96,5.68,33.25,4.89-15.98,8.09-32.84,16.49-47.33-.38,37.19,11.43,50.64,27.08,7.84,4.79,1.62,8.88-5.9,13.05-4.86,4.04,7.3,5.11,14.88,6.77,22.69.71,4.15,4.99,12.32-1.93,12.64-81.44,30.46-57.08,104.08-13.06,61.25,14.6-16.25,25.11-38.71,22.49-60.61,8.78-3.21,16.92-7.28,25.91-9.64,4.57-8.56-22.06,4.03-25.91,5.57ZM152.7,193.11c-3.32-28.78,30.68-45.9,53.11-56.54,6.62,21.8-33.97,92.68-53.11,56.54Z"/></g></svg>