<?xml version="1.0" encoding="UTF-8"?><svg id="b" xmlns="http://www.w3.org/2000/svg" viewBox="0 0 435.44 213.89"><defs><style>.d{fill:#fff;}</style></defs><g id="c"><path class="d" d="M105.64,140.95c-2.62.79-5.35,1.11-8.07,1.35-13.14.48-26.1-.99-39.19-1.25-4.55-.4-10.15,1.06-14.39-.5.04-.94,2.3-2.49,2.93-3.56,11.82-13.46,23.51-27.03,34.11-41.49,7.39-12.4,15.02-24.71,20.99-37.84,2.85-7.71,5.84-15.42,8.48-23.23.84-3,4.41-16.03,1.79-17.66-3.16-1.66-3.2,9.36-4.56,11.65-4.35,13.57-11.21,26.23-17.47,38.93-6.8,10.15-13.26,20.65-20.53,30.46-8.23,9.69-16.04,19.91-25.09,28.91-1.5,1.47-3.14,3.05-4.58,4.69-.58.64-1.81,1.72-2.32,1.45-.45-.14-.73-.88-.73-1.86.18-3.88.53-7.91.27-11.85.3-7.09-.42-14.22-.53-21.31-.24-7.9-.16-16.03-1.06-23.86.41-4.75.87-9.07.16-13.81.27-3.29-.02-6.42-.12-9.53.21-9.68.44-19.49-.57-29.12C34.17,17.38,35.83.54,31.05,0c-1.37-.08-2.25,1.32-2.34,2.9,1.15,19.19.51,38.43.21,57.63-.21,5.58-.57,11.19.03,16.79-.07,2.14-.85,4.3-.81,6.41.13,8.84.73,17.61.41,26.55-.64,9.77,1.3,19.57.06,29.35-.11,2.04-1.5,3.85-3.56,4.28-4.47,1.1-9.04,2.38-13.2,4.44-5.5,2.12-15.26,8.31-10.63,15.08,7.6,6.23,17-1.96,23.78-5.87,1.12-.6,2.55-2.33,3.86-1.69,1.34,1.89.37,5.05.74,7.29.54,5.14,1.07,10.37,1.18,15.57-.02,4.99-.97,10.31.61,15.12.5,1.08,1.33,1.85,2.27,1.97,4.89-.06,3.87-11.38,3.79-15.06-.55-3.49.58-6.93.53-10.42-.63-6.37-.29-12.82.09-19.18,1.34-4.85,8.54-2.34,12.15-3.7l.12-.03c11.21-3.35,59.52,4.64,62.52-8.23-.25-3.88-5.21,1.75-7.22,1.77ZM19.95,153.2c-.79.41-1.51.82-2.11,1.31-.68.5-1.12,1.34-1.56,1.54l-.11.05c-1.17.18-1.99.24-3.16.88-1.46.67-4.16,2.49-5.58,1.78-.15-.27.26-.66.49-.89,3.01-2.88,7.21-4.84,12.23-5.53,1.55-.22,1.48.05-.21.85Z"/><path class="d" d="M111.62,60.9c.24.61,1.17,1.02,1.74,1.17l.16.02c1.62-.24,3.02-1.7,3.54-3.24.22-.6.48-1.27.33-1.76-.41-.68-1.17-1.18-1.88-1.5-2.73-1.01-4.55,3.03-3.89,5.31Z"/><path class="d" d="M243.65,125.65c-1.56-.75-3.47-.07-5.27.48-6.52,1.81-12.92,4.51-19.34,6.73-1.59.22-2.13-1.34-2.37-2.7-.62-3.54-1.25-7.04-2.19-10.43-1.77-8.18-3.33-17.22-8.63-23.98-3.95-4.23-8.66,1.04-12.01,3.41-1.61,1.36-3.56,1.82-3.05-.66.72-2.75,2.41-5.27,4.58-7.21,3.4-3.43,10.77-4.16,11.99,1.55.33,1.25,1.18,2.73,2.39,1.37,1.42-1.7.7-4.8-.67-6.53-2.37-3.24-7.11-3.45-10.81-2.27-3.61,1.23-6.48,3.99-9.05,6.73-2.55,2.45-4.07,7.5-2.79,10.75-.79,1.23-1.29,2.96-1.91,3.97-1.77,3.54-3.59,7.15-5.02,10.8-1.02,2.38-6.8,15.63-10,11.49l-.09-.12c-3.36-7.03-2.22-15.29-3.45-22.83-.54-4.11.1-8.71-1.83-12.47-.59-.95-1.53-1.59-2.54-1.61-4.43.43-5.3,6.11-7.33,9.29-3.56,6.13-4.92,12.92-7.28,19.52-1.09,2.96-1.9,6.2-2.99,9.12-.78,1.53-.97-.05-.96-1.1.2-6.38.06-12.9.11-19.3.38-4.85.38-9.68.5-14.55.33-6.4,1.7-12.71.6-19.1-.33-3.38-3.03-4.46-4.32-.89-.51,1.56-.42,3.29-.43,4.93.1,3.7-.44,7.78-.26,11.28-.47,4.56-.85,9.19-1.11,14.17-3.53,7.08-7.12,14.27-11.3,21.01-1.34,1.9-2.43,6.26-5.44,5.24-3.01-2.04-2.46-6.65-2.79-9.88-.95-7.97-.27-15.97-.82-23.97-.33-2.72.79-12.49-3.41-12-2.97,1.26-2.17,5.79-2.54,8.48-.69,12-.72,23.98,1.02,35.91.35,2.12.9,4.31,2.09,6.09,1.77,2.83,6.13,4.67,9.18,2.83,1.89-1.17,3.11-3.26,4.28-5.1,2.74-4.28,5.29-8.99,7.1-13.82.74-1.79,1.52-3.59,2.3-5.38,0,.17,0,.33-.01.5-.09,4.38-.11,8.3.15,12.32.04,1.5-.38,2.96-.42,4.48-.13,2.28.54,4.69.61,7.09.28,2.95-.47,7.31,2.47,9.04.92.4,1.96.03,2.7-.91.53-.65.91-1.47,1.21-2.33,1.97-6.26,3.31-13.03,5.49-19.33,2.24-6.6,4.11-13.33,7.02-19.72.52-1.08,2.7-9.05,4.03-5.72,1.15,9.4.36,19.34,3.51,28.34,4.05,11.15,12.17,5.31,15.6-2.68,2.45-4.63,4.38-9.79,6.67-14.58.42-1.21,1.77-3.63,2.45-5.82.43.14.89.25,1.41.29,3.65.02,6.47-3.37,9.8-4.48,4.42-.83,6.12,11.91,7.41,14.95.99,4.29,1.68,8.63,2.87,12.9.88,3.41,1.13,7.25-3.12,8.2l-.17.05c-5.34,1.73-10.36,4.45-15.42,6.94-7.28,4.01-14.49,8.57-20.34,14.51-3.67,2.84-7.26,5.92-9.9,9.81-3.08,4.17-6.22,8.46-8.01,13.52-2.51,6.31-3.73,13.3-1.47,19.85,2.77,7.42,9.88,12.05,17.7,11.73,6.8-.15,13.46-3.54,18.37-8.15,5.18-3.99,9.33-9.07,12.93-14.56,2.13-2.87,4.19-5.69,6.07-8.69,2.29-4.8,4.39-9.62,6.2-14.65,2-5.11,3.15-10.44,3.3-15.89.65-3.36,1.48-6.65,1.13-10.1-.28-2.36.56-4.31,2.93-5.05,6.66-2.59,13.11-5.46,19.9-7.55,1.52-.36,5.17-1.96,2.8-3.58ZM212.33,151.81c-1.03,8.43-3.36,16.71-7.2,24.3-2.95,6.69-6.77,13.14-11.65,18.68-8.42,11.66-28.59,24.8-35.91,4.87l-.06-.17c-1.16-3.7-.54-8.11.11-11.95,1.53-4.9,4.24-9.8,7.57-13.78,3.76-4.05,7.35-8.34,11.41-12.1,5.56-4,10.89-8.55,16.97-11.85,5.25-3.29,10.82-5.83,16.46-8.35,1.64-.62,2.19.27,2.27,1.78.11,2.85.41,5.74.03,8.57Z"/><path class="d" d="M361.66,66.77c1.57-5.63,1.84-11.6,2.83-17.35-.25-6.22.33-12.48-1.17-18.58-2.07-10.42-7.83-29.31-21.81-24.45-2.74,1.07-5.11,2.85-7.19,4.91-5.98,5.73-11.68,11.88-16.06,19.06-3.27,4.69-5.28,10.13-7.47,15.38-3.65,7.52-6.73,15.21-9.15,23.22-1.7,4.85-2.97,9.82-4.16,14.84-.5,2.33-1.05.85-1.34-.51l-.02-.11c-.04-19.51.36-39.24,0-58.77.03-1.67-.84-4.01-2.73-3.59-2.06.58-2.35,3.55-2.48,5.5,0,8.93-.96,18.03-.2,26.99-.79,8.3-.11,16.76-.04,25.11-.68,11.67-.34,23.4-.12,35.04-.03,10.87-1,21.92-1.11,32.83.35,8.14,1.55,16.05,2.1,24.05.42,3.16-1.36,8.37,2.07,10.12,5.2.38,1.46-8.51,3.8-11.12,1.22-.73,4.43,0,6.07-1.31,15.14-9.89,24.08-26.35,34.29-40.78,1.98-3.33,4-6.95,6.68-9.57.78-.41,1.92,1.16,2.63.92.82-.51.43-1.79.15-2.58-.62-1.55-1.1-2.91-.61-4.42,2.49-6,5.9-11.67,7.66-17.95,1.08-3.25,3.07-6.16,3.65-9.55.56-2.71,1.56-5.39,2.22-8,.88-2.99.55-6.32,1.51-9.33ZM336.75,121.66c-.53.97-1.16,1.89-1.84,2.74l-.1.13c-4.34,5.89-8.51,12.08-12.74,18.09-4.09,5.72-8.84,10.79-13.37,15.98-1.25,1.3-4.54,5.48-6.32,3.49-1.08-2.81.68-6.25,1.11-9.21.35-1.45,1.09-2.75,1.85-4.03,1.37-2.21,2.29-4.67,3.75-6.79,3.1-4.17,6.45-8.49,10.34-12.04,5.33-4.93,10.94-9.04,17.63-11.83,3.01-1.17.72,1.64-.31,3.47ZM353.62,84.87c-2.25,8.6-6.9,16.49-10.53,24.39-1.08,2.55-3.25,4.24-5.89,4.94-4.34,1.35-8.39,3.5-12.01,6.37-4.42,3.13-9.06,6.03-12.63,10.18-5.74,6.21-10.26,13.66-13.09,21.57-.88,1.29-.51-2.64-.97-3.53-.12-.33-.26-.66-.42-.97l-.07-.13c-1.9-2.73-.8-6.46-.76-9.62-.33-4.02.06-8-.06-12.01-.17-2.17,0-4.35.2-6.51.25-2.71-.31-5.36-.03-8.15.52-5.17,1.24-10.46,2.49-15.43.63-2.44.41-4.98.91-7.46.68-2.91,1.78-5.72,2.42-8.64,2.5-10.71,6.2-21.15,9.83-31.51,2.11-4.73,4.97-9.02,7.49-13.43,1.6-2.7,3.34-5.33,5.29-7.79,4.73-5.89,8.93-12,15.45-15.8,9.29-5.79,13.15,3.99,15.78,11.22,1.38,3.02,1.34,6.37,2.11,9.53.43,4.42,1.06,8.88,1.06,13.37-.32,7.37-.78,14.82-1.99,22.1-1.67,5.77-2.47,11.69-4.57,17.3Z"/><path class="d" d="M431.74,68.08c-3.61,7.19-5.8,15.26-8.24,22.88-2.65,8.28-5.97,16.12-7.9,24.6-1.09,4.63-3.09,9.02-4.45,13.62-.48,1.35-1.39,6.52-3.01,3.24-1.97-3.91-2.39-8.29-3.46-12.53-.45-1.81-1.11-3.55-1.78-5.28-2.46-6.98-2.52-14.57-5.85-21.39-.99-2.1-2.08-5.03-4.58-5.58-2.29-.29-2.56,2.35-1.8,4.01,1.12,3.23,1.99,6.54,2.81,9.86-1.61,2.08-2.73,4.59-4.23,6.86-1.29,1.98-2.82,3.6-4.05,5.58-3.71,5.32-6.63,10.68-11.13,15.19-2.21,2.75-5.98,6.03-8.15,1.29-1.92-6.23-1.88-13.27-.68-19.62.82-3.43,4.75-2.61,7.67-2.7,4.2.13,9.14.1,8.72-5.43-.13-3.96-1.22-8.06-3.83-11.14-2.32-3.28-5.67-5.19-9.7-3.29-1.47.63-2.91,1.95-3.51,3.33l-.06.14c-1.53,3.37-2.32,7.28-3.1,10.94-1.48,5.35-1.81,10.85-1.8,16.37.04,2.62-.41,5.25.25,7.82,1.44,8.67,5.74,15.95,14.91,9.59,6.51-5.19,11.15-12.65,15.7-19.76,1.51-2.79,3.07-5.51,4.73-8.19.36,1.38.74,2.76,1.16,4.13.24,7.14,2.6,13.76,4.72,20.57,1.14,3.55,3.68,9.95,8.37,7.82,4.29-2.36,5.05-7.66,6.68-11.9,2.4-7.78,3.49-16.06,6.73-23.51l.07-.11c2.32-2.91,3.07-7.2,4.32-10.72,2.21-6.4,4.27-12.98,5.87-19.62.64-2.38,2.15-4.7,2.28-7.21-.11-2.65-2.68-1.64-3.7.14ZM365.77,103.95c.59-3.6,1.54-7.07,3.25-9.82.8-1.37,2.56-1.62,3.96-1.04,2.58.91,3.26,3.89,4.04,6.25.34,1.32.92,3.6.17,4.54l-.1.1c-.36.32-.96.38-1.63.36-2.11-.03-4.22.09-6.31.42-1.64.2-3.58,1.11-3.36-.81Z"/></g></svg>